<?xml version="1.0" encoding="UTF-8"?>
<svg width="73px" height="72px" viewBox="0 0 73 72" version="1.1" xmlns="http://www.w3.org/2000/svg" xmlns:xlink="http://www.w3.org/1999/xlink">
    <!-- Generator: Sketch 46.2 (44496) - http://www.bohemiancoding.com/sketch -->
    <title>最终@3x</title>
    <desc>Created with Sketch.</desc>
    <defs>
        <linearGradient x1="100%" y1="0%" x2="0%" y2="100%" id="linearGradient-1">
            <stop stop-color="#F83600" offset="0%"></stop>
            <stop stop-color="#FFA631" offset="100%"></stop>
        </linearGradient>
        <linearGradient x1="100%" y1="6.123234e-15%" x2="1.09016263%" y2="98.9098374%" id="linearGradient-2">
            <stop stop-color="#F83600" offset="0%"></stop>
            <stop stop-color="#FE8C00" offset="100%"></stop>
        </linearGradient>
        <linearGradient x1="100%" y1="100%" x2="0%" y2="0%" id="linearGradient-3">
            <stop stop-color="#F83600" offset="0%"></stop>
            <stop stop-color="#FE8C00" offset="100%"></stop>
        </linearGradient>
        <linearGradient x1="100%" y1="0%" x2="0%" y2="100%" id="linearGradient-4">
            <stop stop-color="#F83600" offset="0%"></stop>
            <stop stop-color="#FE8C00" offset="100%"></stop>
        </linearGradient>
        <linearGradient x1="0%" y1="38.0063206%" x2="100%" y2="81.373287%" id="linearGradient-5">
            <stop stop-color="#F83600" offset="0%"></stop>
            <stop stop-color="#FE8C00" offset="100%"></stop>
        </linearGradient>
    </defs>
    <g id="Page-1" stroke="none" stroke-width="1" fill="none" fill-rule="evenodd">
        <g id="原版" transform="translate(-65.000000, -159.000000)">
            <g id="最终" style="mix-blend-mode: multiply;" transform="translate(65.000000, 158.000000)">
                <rect id="Rectangle-23-Copy-19" fill="url(#linearGradient-1)" transform="translate(22.273864, 51.273864) scale(1, -1) rotate(-45.000000) translate(-22.273864, -51.273864) " x="1.27386361" y="40.7738636" width="42" height="21" rx="2"></rect>
                <rect id="Rectangle-23-Copy-21" fill="url(#linearGradient-2)" transform="translate(22.726136, 22.726136) scale(-1, -1) rotate(-45.000000) translate(-22.726136, -22.726136) " x="1.72613639" y="12.2261364" width="42" height="21" rx="2"></rect>
                <rect id="Rectangle-23-Copy-22" fill="url(#linearGradient-3)" transform="translate(50.726136, 22.726136) scale(-1, 1) rotate(-45.000000) translate(-50.726136, -22.726136) " x="29.7261364" y="12.2261364" width="42" height="21" rx="2"></rect>
                <rect id="Rectangle-23-Copy-20" fill="url(#linearGradient-4)" transform="translate(50.273864, 51.273864) rotate(-45.000000) translate(-50.273864, -51.273864) " x="29.2738636" y="40.7738636" width="42" height="21" rx="2"></rect>
                <rect id="Rectangle-23-Copy-26" fill="url(#linearGradient-3)" transform="translate(22.273864, 51.273864) scale(1, -1) rotate(-45.000000) translate(-22.273864, -51.273864) " x="1.27386361" y="40.7738636" width="42" height="21" rx="2"></rect>
                <rect id="Rectangle-23-Copy-25" fill="url(#linearGradient-4)" transform="translate(22.726136, 22.726136) scale(-1, -1) rotate(-45.000000) translate(-22.726136, -22.726136) " x="1.72613639" y="12.2261364" width="42" height="21" rx="2"></rect>
                <path d="M65.9246212,37.2261364 L71.5857864,31.5649712 C72.366835,30.7839226 72.366835,29.5175926 71.5857864,28.736544 L44.7157288,1.86648635 C43.9346802,1.08543776 42.6683502,1.08543776 41.8873016,1.86648635 L29.8664863,13.8873016 C29.0854378,14.6683502 29.0854378,15.9346802 29.8664863,16.7157288 L49.9246212,36.7738636 L56.2842712,30.4142136 C57.0653198,29.633165 58.3316498,29.633165 59.1126984,30.4142136 L65.9246212,37.2261364 Z" id="Combined-Shape" fill="url(#linearGradient-5)"></path>
            </g>
        </g>
    </g>
</svg>